{"asset":{"version":"2.0","generator":"Dungeon AssetBaker"},"scene":0,"scenes":[{"nodes":[0]}],"nodes":[{"mesh":0}],"materials":[{"pbrMetallicRoughness":{"baseColorFactor":[1,1,1,1],"metallicFactor":0.0,"roughnessFactor":1.0}}],"meshes":[{"primitives":[{"attributes":{"POSITION":0,"NORMAL":1,"TEXCOORD_0":2},"indices":3,"material":0}]}],"buffers":[{"byteLength":84456,"uri":"data:application/octet-stream;base64,"}],"bufferViews":[{"buffer":0,"byteOffset":0,"byteLength":28152},{"buffer":0,"byteOffset":28152,"byteLength":28152},{"buffer":0,"byteOffset":56304,"byteLength":18768},{"buffer":0,"byteOffset":75072,"byteLength":9384}],"accessors":[{"bufferView":0,"componentType":5126,"count":2346,"type":"VEC3","min":[-0.4596813,0,-0.47082752],"max":[0.4596813,0.95,0.47082752]},{"bufferView":1,"componentType":5126,"count":2346,"type":"VEC3"},{"bufferView":2,"componentType":5126,"count":2346,"type":"VEC2"},{"bufferView":3,"componentType":5125,"count":2346,"type":"SCALAR"}]}