{"asset":{"version":"2.0","generator":"Dungeon AssetBaker"},"scene":0,"scenes":[{"nodes":[0]}],"nodes":[{"mesh":0}],"materials":[{"pbrMetallicRoughness":{"baseColorFactor":[0.6,0.58,0.55,1],"metallicFactor":0.0,"roughnessFactor":1.0}}],"meshes":[{"primitives":[{"attributes":{"POSITION":0,"NORMAL":1,"TEXCOORD_0":2},"indices":3,"material":0}]}],"buffers":[{"byteLength":25992,"uri":"data:application/octet-stream;base64,"}],"bufferViews":[{"buffer":0,"byteOffset":0,"byteLength":8208},{"buffer":0,"byteOffset":8208,"byteLength":8208},{"buffer":0,"byteOffset":16416,"byteLength":5472},{"buffer":0,"byteOffset":21888,"byteLength":4104}],"accessors":[{"bufferView":0,"componentType":5126,"count":684,"type":"VEC3","min":[-0.5,0,-0.104],"max":[0.5,1,0.104]},{"bufferView":1,"componentType":5126,"count":684,"type":"VEC3"},{"bufferView":2,"componentType":5126,"count":684,"type":"VEC2"},{"bufferView":3,"componentType":5125,"count":1026,"type":"SCALAR"}]}