{"asset":{"version":"2.0","generator":"Dungeon AssetBaker"},"scene":0,"scenes":[{"nodes":[0]}],"nodes":[{"mesh":0}],"materials":[{"pbrMetallicRoughness":{"baseColorFactor":[0.55,0.11,0.13,1],"metallicFactor":0.0,"roughnessFactor":1.0}}],"meshes":[{"primitives":[{"attributes":{"POSITION":0,"NORMAL":1,"TEXCOORD_0":2},"indices":3,"material":0}]}],"buffers":[{"byteLength":3648,"uri":"data:application/octet-stream;base64,"}],"bufferViews":[{"buffer":0,"byteOffset":0,"byteLength":1152},{"buffer":0,"byteOffset":1152,"byteLength":1152},{"buffer":0,"byteOffset":2304,"byteLength":768},{"buffer":0,"byteOffset":3072,"byteLength":576}],"accessors":[{"bufferView":0,"componentType":5126,"count":96,"type":"VEC3","min":[-0.16,0.276,0],"max":[0.16,0.88600004,0.04]},{"bufferView":1,"componentType":5126,"count":96,"type":"VEC3"},{"bufferView":2,"componentType":5126,"count":96,"type":"VEC2"},{"bufferView":3,"componentType":5125,"count":144,"type":"SCALAR"}]}