{"asset":{"version":"2.0","generator":"Dungeon AssetBaker"},"scene":0,"scenes":[{"nodes":[0]}],"nodes":[{"mesh":0}],"materials":[{"pbrMetallicRoughness":{"baseColorFactor":[0.45,0.31,0.18,1],"metallicFactor":0.0,"roughnessFactor":1.0}}],"meshes":[{"primitives":[{"attributes":{"POSITION":0,"NORMAL":1,"TEXCOORD_0":2},"indices":3,"material":0}]}],"buffers":[{"byteLength":12000,"uri":"data:application/octet-stream;base64,"}],"bufferViews":[{"buffer":0,"byteOffset":0,"byteLength":3060},{"buffer":0,"byteOffset":3060,"byteLength":3060},{"buffer":0,"byteOffset":6120,"byteLength":2040},{"buffer":0,"byteOffset":8160,"byteLength":3840}],"accessors":[{"bufferView":0,"componentType":5126,"count":255,"type":"VEC3","min":[-0.146,0,-0.146],"max":[0.146,0.344,0.146]},{"bufferView":1,"componentType":5126,"count":255,"type":"VEC3"},{"bufferView":2,"componentType":5126,"count":255,"type":"VEC2"},{"bufferView":3,"componentType":5125,"count":960,"type":"SCALAR"}]}