{"asset":{"version":"2.0","generator":"Dungeon AssetBaker"},"scene":0,"scenes":[{"nodes":[0,1]}],"nodes":[{"mesh":0,"skin":0},{"name":"base","translation":[0,0.072000004,0],"rotation":[0,0,0,1],"scale":[1,1,1],"children":[2]},{"name":"top","translation":[0,0.17999999,0],"rotation":[0,0,0,1],"scale":[1,1,1]}],"materials":[{"pbrMetallicRoughness":{"baseColorFactor":[0.38,0.78,0.32,1],"metallicFactor":0.0,"roughnessFactor":1.0}}],"skins":[{"joints":[1,2],"inverseBindMatrices":6,"skeleton":1}],"animations":[{"name":"idle","samplers":[{"input":7,"output":8,"interpolation":"LINEAR"},{"input":9,"output":10,"interpolation":"LINEAR"}],"channels":[{"sampler":0,"target":{"node":1,"path":"scale"}},{"sampler":1,"target":{"node":2,"path":"scale"}}]},{"name":"walk","samplers":[{"input":11,"output":12,"interpolation":"LINEAR"},{"input":13,"output":14,"interpolation":"LINEAR"},{"input":15,"output":16,"interpolation":"LINEAR"}],"channels":[{"sampler":0,"target":{"node":1,"path":"scale"}},{"sampler":1,"target":{"node":2,"path":"scale"}},{"sampler":2,"target":{"node":1,"path":"translation"}}]},{"name":"attack","samplers":[{"input":17,"output":18,"interpolation":"LINEAR"},{"input":19,"output":20,"interpolation":"LINEAR"},{"input":21,"output":22,"interpolation":"LINEAR"}],"channels":[{"sampler":0,"target":{"node":1,"path":"scale"}},{"sampler":1,"target":{"node":1,"path":"translation"}},{"sampler":2,"target":{"node":2,"path":"scale"}}]},{"name":"die","samplers":[{"input":23,"output":24,"interpolation":"LINEAR"},{"input":25,"output":26,"interpolation":"LINEAR"},{"input":27,"output":28,"interpolation":"LINEAR"},{"input":29,"output":30,"interpolation":"LINEAR"}],"channels":[{"sampler":0,"target":{"node":1,"path":"scale"}},{"sampler":1,"target":{"node":1,"path":"translation"}},{"sampler":2,"target":{"node":2,"path":"scale"}},{"sampler":3,"target":{"node":2,"path":"translation"}}]}],"meshes":[{"primitives":[{"attributes":{"POSITION":0,"NORMAL":1,"TEXCOORD_0":2,"JOINTS_0":3,"WEIGHTS_0":4},"indices":5,"material":0}]}],"buffers":[{"byteLength":32696,"uri":"data:application/octet-stream;base64,"}],"bufferViews":[{"buffer":0,"byteOffset":0,"byteLength":4692},{"buffer":0,"byteOffset":4692,"byteLength":4692},{"buffer":0,"byteOffset":9384,"byteLength":3128},{"buffer":0,"byteOffset":12512,"byteLength":3128},{"buffer":0,"byteOffset":15640,"byteLength":6256},{"buffer":0,"byteOffset":21896,"byteLength":8448},{"buffer":0,"byteOffset":30344,"byteLength":128},{"buffer":0,"byteOffset":30472,"byteLength":100},{"buffer":0,"byteOffset":30572,"byteLength":300},{"buffer":0,"byteOffset":30872,"byteLength":100},{"buffer":0,"byteOffset":30972,"byteLength":300},{"buffer":0,"byteOffset":31272,"byteLength":84},{"buffer":0,"byteOffset":31356,"byteLength":252},{"buffer":0,"byteOffset":31608,"byteLength":84},{"buffer":0,"byteOffset":31692,"byteLength":252},{"buffer":0,"byteOffset":31944,"byteLength":84},{"buffer":0,"byteOffset":32028,"byteLength":252},{"buffer":0,"byteOffset":32280,"byteLength":24},{"buffer":0,"byteOffset":32304,"byteLength":72},{"buffer":0,"byteOffset":32376,"byteLength":24},{"buffer":0,"byteOffset":32400,"byteLength":72},{"buffer":0,"byteOffset":32472,"byteLength":16},{"buffer":0,"byteOffset":32488,"byteLength":48},{"buffer":0,"byteOffset":32536,"byteLength":16},{"buffer":0,"byteOffset":32552,"byteLength":48},{"buffer":0,"byteOffset":32600,"byteLength":8},{"buffer":0,"byteOffset":32608,"byteLength":24},{"buffer":0,"byteOffset":32632,"byteLength":8},{"buffer":0,"byteOffset":32640,"byteLength":24},{"buffer":0,"byteOffset":32664,"byteLength":8},{"buffer":0,"byteOffset":32672,"byteLength":24}],"accessors":[{"bufferView":0,"componentType":5126,"count":391,"type":"VEC3","min":[-0.16952118,-0.013776148,-0.16568618],"max":[0.16271904,0.35953575,0.16568618]},{"bufferView":1,"componentType":5126,"count":391,"type":"VEC3"},{"bufferView":2,"componentType":5126,"count":391,"type":"VEC2"},{"bufferView":3,"componentType":5123,"count":391,"type":"VEC4"},{"bufferView":4,"componentType":5126,"count":391,"type":"VEC4"},{"bufferView":5,"componentType":5125,"count":2112,"type":"SCALAR"},{"bufferView":6,"componentType":5126,"count":2,"type":"MAT4"},{"bufferView":7,"componentType":5126,"count":25,"type":"SCALAR","min":[0],"max":[2.8]},{"bufferView":8,"componentType":5126,"count":25,"type":"VEC3"},{"bufferView":9,"componentType":5126,"count":25,"type":"SCALAR","min":[0],"max":[2.8]},{"bufferView":10,"componentType":5126,"count":25,"type":"VEC3"},{"bufferView":11,"componentType":5126,"count":21,"type":"SCALAR","min":[0],"max":[0.6]},{"bufferView":12,"componentType":5126,"count":21,"type":"VEC3"},{"bufferView":13,"componentType":5126,"count":21,"type":"SCALAR","min":[0],"max":[0.6]},{"bufferView":14,"componentType":5126,"count":21,"type":"VEC3"},{"bufferView":15,"componentType":5126,"count":21,"type":"SCALAR","min":[0],"max":[0.6]},{"bufferView":16,"componentType":5126,"count":21,"type":"VEC3"},{"bufferView":17,"componentType":5126,"count":6,"type":"SCALAR","min":[0],"max":[0.5]},{"bufferView":18,"componentType":5126,"count":6,"type":"VEC3"},{"bufferView":19,"componentType":5126,"count":6,"type":"SCALAR","min":[0],"max":[0.5]},{"bufferView":20,"componentType":5126,"count":6,"type":"VEC3"},{"bufferView":21,"componentType":5126,"count":4,"type":"SCALAR","min":[0],"max":[0.5]},{"bufferView":22,"componentType":5126,"count":4,"type":"VEC3"},{"bufferView":23,"componentType":5126,"count":4,"type":"SCALAR","min":[0],"max":[0.85]},{"bufferView":24,"componentType":5126,"count":4,"type":"VEC3"},{"bufferView":25,"componentType":5126,"count":2,"type":"SCALAR","min":[0],"max":[0.85]},{"bufferView":26,"componentType":5126,"count":2,"type":"VEC3"},{"bufferView":27,"componentType":5126,"count":2,"type":"SCALAR","min":[0],"max":[0.85]},{"bufferView":28,"componentType":5126,"count":2,"type":"VEC3"},{"bufferView":29,"componentType":5126,"count":2,"type":"SCALAR","min":[0],"max":[0.85]},{"bufferView":30,"componentType":5126,"count":2,"type":"VEC3"}]}