{"asset":{"version":"2.0","generator":"Dungeon AssetBaker"},"scene":0,"scenes":[{"nodes":[0,1]}],"nodes":[{"mesh":0,"skin":0},{"name":"base","translation":[0,0.18,0],"rotation":[0,0,0,1],"scale":[1,1,1],"children":[2]},{"name":"top","translation":[0,0.45,0],"rotation":[0,0,0,1],"scale":[1,1,1]}],"materials":[{"pbrMetallicRoughness":{"baseColorFactor":[0.38,0.78,0.32,1],"metallicFactor":0.0,"roughnessFactor":1.0}}],"skins":[{"joints":[1,2],"inverseBindMatrices":6,"skeleton":1}],"animations":[{"name":"idle","samplers":[{"input":7,"output":8,"interpolation":"LINEAR"},{"input":9,"output":10,"interpolation":"LINEAR"}],"channels":[{"sampler":0,"target":{"node":1,"path":"scale"}},{"sampler":1,"target":{"node":2,"path":"scale"}}]}],"meshes":[{"primitives":[{"attributes":{"POSITION":0,"NORMAL":1,"TEXCOORD_0":2,"JOINTS_0":3,"WEIGHTS_0":4},"indices":5,"material":0}]}],"buffers":[{"byteLength":17912,"uri":"data:application/octet-stream;base64,"}],"bufferViews":[{"buffer":0,"byteOffset":0,"byteLength":2652},{"buffer":0,"byteOffset":2652,"byteLength":2652},{"buffer":0,"byteOffset":5304,"byteLength":1768},{"buffer":0,"byteOffset":7072,"byteLength":1768},{"buffer":0,"byteOffset":8840,"byteLength":3536},{"buffer":0,"byteOffset":12376,"byteLength":4608},{"buffer":0,"byteOffset":16984,"byteLength":128},{"buffer":0,"byteOffset":17112,"byteLength":100},{"buffer":0,"byteOffset":17212,"byteLength":300},{"buffer":0,"byteOffset":17512,"byteLength":100},{"buffer":0,"byteOffset":17612,"byteLength":300}],"accessors":[{"bufferView":0,"componentType":5126,"count":221,"type":"VEC3","min":[-0.42,0,-0.42],"max":[0.42,0.84,0.42]},{"bufferView":1,"componentType":5126,"count":221,"type":"VEC3"},{"bufferView":2,"componentType":5126,"count":221,"type":"VEC2"},{"bufferView":3,"componentType":5123,"count":221,"type":"VEC4"},{"bufferView":4,"componentType":5126,"count":221,"type":"VEC4"},{"bufferView":5,"componentType":5125,"count":1152,"type":"SCALAR"},{"bufferView":6,"componentType":5126,"count":2,"type":"MAT4"},{"bufferView":7,"componentType":5126,"count":25,"type":"SCALAR","min":[0],"max":[2.8]},{"bufferView":8,"componentType":5126,"count":25,"type":"VEC3"},{"bufferView":9,"componentType":5126,"count":25,"type":"SCALAR","min":[0],"max":[2.8]},{"bufferView":10,"componentType":5126,"count":25,"type":"VEC3"}]}