{"asset":{"version":"2.0","generator":"Dungeon AssetBaker"},"scene":0,"scenes":[{"nodes":[0]}],"nodes":[{"mesh":0}],"materials":[{"pbrMetallicRoughness":{"baseColorFactor":[1,1,1,1],"metallicFactor":0.0,"roughnessFactor":1.0}}],"meshes":[{"primitives":[{"attributes":{"POSITION":0,"NORMAL":1,"TEXCOORD_0":2},"indices":3,"material":0}]}],"buffers":[{"byteLength":139664,"uri":"data:application/octet-stream;base64,"}],"bufferViews":[{"buffer":0,"byteOffset":0,"byteLength":44256},{"buffer":0,"byteOffset":44256,"byteLength":44256},{"buffer":0,"byteOffset":88512,"byteLength":29504},{"buffer":0,"byteOffset":118016,"byteLength":21648}],"accessors":[{"bufferView":0,"componentType":5126,"count":3688,"type":"VEC3","min":[-0.586893,0,-0.58824044],"max":[0.586893,0.9,0.58824044]},{"bufferView":1,"componentType":5126,"count":3688,"type":"VEC3"},{"bufferView":2,"componentType":5126,"count":3688,"type":"VEC2"},{"bufferView":3,"componentType":5125,"count":5412,"type":"SCALAR"}]}