{"asset":{"version":"2.0","generator":"Dungeon AssetBaker"},"scene":0,"scenes":[{"nodes":[0]}],"nodes":[{"mesh":0}],"materials":[{"pbrMetallicRoughness":{"baseColorFactor":[1,1,1,1],"metallicFactor":0.0,"roughnessFactor":1.0}}],"meshes":[{"primitives":[{"attributes":{"POSITION":0,"NORMAL":1,"TEXCOORD_0":2},"indices":3,"material":0}]}],"buffers":[{"byteLength":94384,"uri":"data:application/octet-stream;base64,"}],"bufferViews":[{"buffer":0,"byteOffset":0,"byteLength":27024},{"buffer":0,"byteOffset":27024,"byteLength":27024},{"buffer":0,"byteOffset":54048,"byteLength":18016},{"buffer":0,"byteOffset":72064,"byteLength":22320}],"accessors":[{"bufferView":0,"componentType":5126,"count":2252,"type":"VEC3","min":[-0.30872717,0.60122657,-0.30877602],"max":[0.30872717,0.72270197,0.30877596]},{"bufferView":1,"componentType":5126,"count":2252,"type":"VEC3"},{"bufferView":2,"componentType":5126,"count":2252,"type":"VEC2"},{"bufferView":3,"componentType":5125,"count":5580,"type":"SCALAR"}]}