{"asset":{"version":"2.0","generator":"Dungeon AssetBaker"},"scene":0,"scenes":[{"nodes":[0]}],"nodes":[{"mesh":0}],"materials":[{"pbrMetallicRoughness":{"baseColorFactor":[1,1,1,1],"metallicFactor":0.0,"roughnessFactor":1.0}}],"meshes":[{"primitives":[{"attributes":{"POSITION":0,"NORMAL":1,"TEXCOORD_0":2},"indices":3,"material":0}]}],"buffers":[{"byteLength":673432,"uri":"data:application/octet-stream;base64,"}],"bufferViews":[{"buffer":0,"byteOffset":0,"byteLength":169908},{"buffer":0,"byteOffset":169908,"byteLength":169908},{"buffer":0,"byteOffset":339816,"byteLength":113272},{"buffer":0,"byteOffset":453088,"byteLength":220344}],"accessors":[{"bufferView":0,"componentType":5126,"count":14159,"type":"VEC3","min":[-0.35996008,0,-0.3599601],"max":[0.35996008,0.75,0.3599601]},{"bufferView":1,"componentType":5126,"count":14159,"type":"VEC3"},{"bufferView":2,"componentType":5126,"count":14159,"type":"VEC2"},{"bufferView":3,"componentType":5125,"count":55086,"type":"SCALAR"}]}