{"asset":{"version":"2.0","generator":"Dungeon AssetBaker"},"scene":0,"scenes":[{"nodes":[0]}],"nodes":[{"mesh":0}],"materials":[{"pbrMetallicRoughness":{"baseColorFactor":[0.38,0.33,0.29,1],"metallicFactor":0.0,"roughnessFactor":1.0}}],"meshes":[{"primitives":[{"attributes":{"POSITION":0,"NORMAL":1,"TEXCOORD_0":2},"indices":3,"material":0}]}],"buffers":[{"byteLength":21920,"uri":"data:application/octet-stream;base64,"}],"bufferViews":[{"buffer":0,"byteOffset":0,"byteLength":5808},{"buffer":0,"byteOffset":5808,"byteLength":5808},{"buffer":0,"byteOffset":11616,"byteLength":3872},{"buffer":0,"byteOffset":15488,"byteLength":6432}],"accessors":[{"bufferView":0,"componentType":5126,"count":484,"type":"VEC3","min":[-0.27,-0.0060438286,-0.30450973],"max":[0.27,0.665,0.2658981]},{"bufferView":1,"componentType":5126,"count":484,"type":"VEC3"},{"bufferView":2,"componentType":5126,"count":484,"type":"VEC2"},{"bufferView":3,"componentType":5125,"count":1608,"type":"SCALAR"}]}