{"asset":{"version":"2.0","generator":"Dungeon AssetBaker"},"scene":0,"scenes":[{"nodes":[0]}],"nodes":[{"mesh":0}],"materials":[{"pbrMetallicRoughness":{"baseColorFactor":[1,1,1,1],"metallicFactor":0.0,"roughnessFactor":1.0}}],"meshes":[{"primitives":[{"attributes":{"POSITION":0,"NORMAL":1,"TEXCOORD_0":2},"indices":3,"material":0}]}],"buffers":[{"byteLength":24624,"uri":"data:application/octet-stream;base64,"}],"bufferViews":[{"buffer":0,"byteOffset":0,"byteLength":7776},{"buffer":0,"byteOffset":7776,"byteLength":7776},{"buffer":0,"byteOffset":15552,"byteLength":5184},{"buffer":0,"byteOffset":20736,"byteLength":3888}],"accessors":[{"bufferView":0,"componentType":5126,"count":648,"type":"VEC3","min":[-0.5,0.87,-0.085],"max":[0.5,0.98,0.085]},{"bufferView":1,"componentType":5126,"count":648,"type":"VEC3"},{"bufferView":2,"componentType":5126,"count":648,"type":"VEC2"},{"bufferView":3,"componentType":5125,"count":972,"type":"SCALAR"}]}