{"asset":{"version":"2.0","generator":"Dungeon AssetBaker"},"scene":0,"scenes":[{"nodes":[0]}],"nodes":[{"mesh":0}],"materials":[{"pbrMetallicRoughness":{"baseColorFactor":[0.66,0.64,0.6,1],"metallicFactor":0.0,"roughnessFactor":1.0}}],"meshes":[{"primitives":[{"attributes":{"POSITION":0,"NORMAL":1,"TEXCOORD_0":2},"indices":3,"material":0}]}],"buffers":[{"byteLength":15344,"uri":"data:application/octet-stream;base64,"}],"bufferViews":[{"buffer":0,"byteOffset":0,"byteLength":3648},{"buffer":0,"byteOffset":3648,"byteLength":3648},{"buffer":0,"byteOffset":7296,"byteLength":2432},{"buffer":0,"byteOffset":9728,"byteLength":5616}],"accessors":[{"bufferView":0,"componentType":5126,"count":304,"type":"VEC3","min":[-0.14400001,0,-0.14181232],"max":[0.14400001,0.98,0.14181232]},{"bufferView":1,"componentType":5126,"count":304,"type":"VEC3"},{"bufferView":2,"componentType":5126,"count":304,"type":"VEC2"},{"bufferView":3,"componentType":5125,"count":1404,"type":"SCALAR"}]}