{"asset":{"version":"2.0","generator":"Dungeon AssetBaker"},"scene":0,"scenes":[{"nodes":[0]}],"nodes":[{"mesh":0}],"materials":[{"pbrMetallicRoughness":{"baseColorFactor":[0.5,0.36,0.22,1],"metallicFactor":0.0,"roughnessFactor":1.0}}],"meshes":[{"primitives":[{"attributes":{"POSITION":0,"NORMAL":1,"TEXCOORD_0":2},"indices":3,"material":0}]}],"buffers":[{"byteLength":11856,"uri":"data:application/octet-stream;base64,"}],"bufferViews":[{"buffer":0,"byteOffset":0,"byteLength":3744},{"buffer":0,"byteOffset":3744,"byteLength":3744},{"buffer":0,"byteOffset":7488,"byteLength":2496},{"buffer":0,"byteOffset":9984,"byteLength":1872}],"accessors":[{"bufferView":0,"componentType":5126,"count":312,"type":"VEC3","min":[-0.164,-0.02,-0.164],"max":[0.164,0.30800003,0.164]},{"bufferView":1,"componentType":5126,"count":312,"type":"VEC3"},{"bufferView":2,"componentType":5126,"count":312,"type":"VEC2"},{"bufferView":3,"componentType":5125,"count":468,"type":"SCALAR"}]}