{"asset":{"version":"2.0","generator":"Dungeon AssetBaker"},"scene":0,"scenes":[{"nodes":[0]}],"nodes":[{"mesh":0}],"materials":[{"pbrMetallicRoughness":{"baseColorFactor":[0.5,0.48,0.45,1],"metallicFactor":0.0,"roughnessFactor":1.0}}],"meshes":[{"primitives":[{"attributes":{"POSITION":0,"NORMAL":1,"TEXCOORD_0":2},"indices":3,"material":0}]}],"buffers":[{"byteLength":2736,"uri":"data:application/octet-stream;base64,"}],"bufferViews":[{"buffer":0,"byteOffset":0,"byteLength":864},{"buffer":0,"byteOffset":864,"byteLength":864},{"buffer":0,"byteOffset":1728,"byteLength":576},{"buffer":0,"byteOffset":2304,"byteLength":432}],"accessors":[{"bufferView":0,"componentType":5126,"count":72,"type":"VEC3","min":[-1.2,0,-0.14],"max":[1.2,2.5,0.14]},{"bufferView":1,"componentType":5126,"count":72,"type":"VEC3"},{"bufferView":2,"componentType":5126,"count":72,"type":"VEC2"},{"bufferView":3,"componentType":5125,"count":108,"type":"SCALAR"}]}