{"asset":{"version":"2.0","generator":"Dungeon AssetBaker"},"scene":0,"scenes":[{"nodes":[0]}],"nodes":[{"mesh":0}],"materials":[{"pbrMetallicRoughness":{"baseColorFactor":[0.4,0.27,0.16,1],"metallicFactor":0.0,"roughnessFactor":1.0}}],"meshes":[{"primitives":[{"attributes":{"POSITION":0,"NORMAL":1,"TEXCOORD_0":2},"indices":3,"material":0}]}],"buffers":[{"byteLength":9120,"uri":"data:application/octet-stream;base64,"}],"bufferViews":[{"buffer":0,"byteOffset":0,"byteLength":2880},{"buffer":0,"byteOffset":2880,"byteLength":2880},{"buffer":0,"byteOffset":5760,"byteLength":1920},{"buffer":0,"byteOffset":7680,"byteLength":1440}],"accessors":[{"bufferView":0,"componentType":5126,"count":240,"type":"VEC3","min":[-0.268,0,-0.056],"max":[0.268,0.904,0.056]},{"bufferView":1,"componentType":5126,"count":240,"type":"VEC3"},{"bufferView":2,"componentType":5126,"count":240,"type":"VEC2"},{"bufferView":3,"componentType":5125,"count":360,"type":"SCALAR"}]}