{"asset":{"version":"2.0","generator":"Dungeon AssetBaker"},"scene":0,"scenes":[{"nodes":[0]}],"nodes":[{"mesh":0}],"materials":[{"pbrMetallicRoughness":{"baseColorFactor":[1,1,1,1],"metallicFactor":0.0,"roughnessFactor":1.0}}],"meshes":[{"primitives":[{"attributes":{"POSITION":0,"NORMAL":1,"TEXCOORD_0":2},"indices":3,"material":0}]}],"buffers":[{"byteLength":41040,"uri":"data:application/octet-stream;base64,"}],"bufferViews":[{"buffer":0,"byteOffset":0,"byteLength":12960},{"buffer":0,"byteOffset":12960,"byteLength":12960},{"buffer":0,"byteOffset":25920,"byteLength":8640},{"buffer":0,"byteOffset":34560,"byteLength":6480}],"accessors":[{"bufferView":0,"componentType":5126,"count":1080,"type":"VEC3","min":[-0.208,-0.024,-0.2],"max":[0.208,-0.012,0.2]},{"bufferView":1,"componentType":5126,"count":1080,"type":"VEC3"},{"bufferView":2,"componentType":5126,"count":1080,"type":"VEC2"},{"bufferView":3,"componentType":5125,"count":1620,"type":"SCALAR"}]}