{"asset":{"version":"2.0","generator":"Dungeon AssetBaker"},"scene":0,"scenes":[{"nodes":[0]}],"nodes":[{"mesh":0}],"materials":[{"pbrMetallicRoughness":{"baseColorFactor":[1,1,1,1],"metallicFactor":0.0,"roughnessFactor":1.0}}],"meshes":[{"primitives":[{"attributes":{"POSITION":0,"NORMAL":1,"TEXCOORD_0":2},"indices":3,"material":0}]}],"buffers":[{"byteLength":7496,"uri":"data:application/octet-stream;base64,"}],"bufferViews":[{"buffer":0,"byteOffset":0,"byteLength":2352},{"buffer":0,"byteOffset":2352,"byteLength":2352},{"buffer":0,"byteOffset":4704,"byteLength":1568},{"buffer":0,"byteOffset":6272,"byteLength":1224}],"accessors":[{"bufferView":0,"componentType":5126,"count":196,"type":"VEC3","min":[-0.5,-0.04,-0.5],"max":[0.5,6.1036087e-07,0.5]},{"bufferView":1,"componentType":5126,"count":196,"type":"VEC3"},{"bufferView":2,"componentType":5126,"count":196,"type":"VEC2"},{"bufferView":3,"componentType":5125,"count":306,"type":"SCALAR"}]}