{"asset":{"version":"2.0","generator":"Dungeon AssetBaker"},"scene":0,"scenes":[{"nodes":[0]}],"nodes":[{"mesh":0}],"materials":[{"pbrMetallicRoughness":{"baseColorFactor":[0.52,0.55,0.58,1],"metallicFactor":0.0,"roughnessFactor":1.0}}],"meshes":[{"primitives":[{"attributes":{"POSITION":0,"NORMAL":1,"TEXCOORD_0":2},"indices":3,"material":0}]}],"buffers":[{"byteLength":23808,"uri":"data:application/octet-stream;base64,"}],"bufferViews":[{"buffer":0,"byteOffset":0,"byteLength":6048},{"buffer":0,"byteOffset":6048,"byteLength":6048},{"buffer":0,"byteOffset":12096,"byteLength":4032},{"buffer":0,"byteOffset":16128,"byteLength":7680}],"accessors":[{"bufferView":0,"componentType":5126,"count":504,"type":"VEC3","min":[-0.39200002,0,-0.39200002],"max":[0.39200002,0.384,0.39200002]},{"bufferView":1,"componentType":5126,"count":504,"type":"VEC3"},{"bufferView":2,"componentType":5126,"count":504,"type":"VEC2"},{"bufferView":3,"componentType":5125,"count":1920,"type":"SCALAR"}]}