{"asset":{"version":"2.0","generator":"Dungeon AssetBaker"},"scene":0,"scenes":[{"nodes":[0]}],"nodes":[{"mesh":0}],"materials":[{"pbrMetallicRoughness":{"baseColorFactor":[1,1,1,1],"metallicFactor":0.0,"roughnessFactor":1.0}}],"meshes":[{"primitives":[{"attributes":{"POSITION":0,"NORMAL":1,"TEXCOORD_0":2},"indices":3,"material":0}]}],"buffers":[{"byteLength":13760,"uri":"data:application/octet-stream;base64,"}],"bufferViews":[{"buffer":0,"byteOffset":0,"byteLength":3612},{"buffer":0,"byteOffset":3612,"byteLength":3612},{"buffer":0,"byteOffset":7224,"byteLength":2408},{"buffer":0,"byteOffset":9632,"byteLength":4128}],"accessors":[{"bufferView":0,"componentType":5126,"count":301,"type":"VEC3","min":[-0.012,-0.012,-0.0104],"max":[0.012,0.012,0.096200004]},{"bufferView":1,"componentType":5126,"count":301,"type":"VEC3"},{"bufferView":2,"componentType":5126,"count":301,"type":"VEC2"},{"bufferView":3,"componentType":5125,"count":1032,"type":"SCALAR"}]}