{"asset":{"version":"2.0","generator":"Dungeon AssetBaker"},"scene":0,"scenes":[{"nodes":[0]}],"nodes":[{"mesh":0}],"materials":[{"pbrMetallicRoughness":{"baseColorFactor":[1,1,1,1],"metallicFactor":0.0,"roughnessFactor":1.0}}],"meshes":[{"primitives":[{"attributes":{"POSITION":0,"NORMAL":1,"TEXCOORD_0":2},"indices":3,"material":0}]}],"buffers":[{"byteLength":176904,"uri":"data:application/octet-stream;base64,"}],"bufferViews":[{"buffer":0,"byteOffset":0,"byteLength":58968},{"buffer":0,"byteOffset":58968,"byteLength":58968},{"buffer":0,"byteOffset":117936,"byteLength":39312},{"buffer":0,"byteOffset":157248,"byteLength":19656}],"accessors":[{"bufferView":0,"componentType":5126,"count":4914,"type":"VEC3","min":[-0.5056747,0,-0.34675977],"max":[0.5056747,0.7,0.34675977]},{"bufferView":1,"componentType":5126,"count":4914,"type":"VEC3"},{"bufferView":2,"componentType":5126,"count":4914,"type":"VEC2"},{"bufferView":3,"componentType":5125,"count":4914,"type":"SCALAR"}]}