{"asset":{"version":"2.0","generator":"Dungeon AssetBaker"},"scene":0,"scenes":[{"nodes":[0,1]}],"nodes":[{"mesh":0,"skin":0},{"name":"root","translation":[0,0.4,0],"rotation":[0,0,0,1],"scale":[1,1,1],"children":[2,10,13]},{"name":"spine","translation":[0,0.11999998,0],"rotation":[0,0,0,1],"scale":[1,1,1],"children":[3,4,7]},{"name":"head","translation":[0,0.16000004,0],"rotation":[0,0,0,1],"scale":[1,1,1]},{"name":"shoulderL","translation":[-0.08,0.1,0],"rotation":[0,0,0,1],"scale":[1,1,1],"children":[5]},{"name":"elbowL","translation":[-0.021999996,-0.1,0],"rotation":[0,0,0,1],"scale":[1,1,1],"children":[6]},{"name":"wristL","translation":[-0.022000004,-0.103999995,0],"rotation":[0,0,0,1],"scale":[1,1,1]},{"name":"shoulderR","translation":[0.08,0.1,0],"rotation":[0,0,0,1],"scale":[1,1,1],"children":[8]},{"name":"elbowR","translation":[0.021999996,-0.1,0],"rotation":[0,0,0,1],"scale":[1,1,1],"children":[9]},{"name":"wristR","translation":[0.022000004,-0.103999995,0],"rotation":[0,0,0,1],"scale":[1,1,1]},{"name":"hipL","translation":[-0.048,-0.020000005,0],"rotation":[0,0,0,1],"scale":[1,1,1],"children":[11]},{"name":"kneeL","translation":[-0.002000001,-0.17999999,0],"rotation":[0,0,0,1],"scale":[1,1,1],"children":[12]},{"name":"ankleL","translation":[-0.001999998,-0.176,0],"rotation":[0,0,0,1],"scale":[1,1,1]},{"name":"hipR","translation":[0.048,-0.020000005,0],"rotation":[0,0,0,1],"scale":[1,1,1],"children":[14]},{"name":"kneeR","translation":[0.002000001,-0.17999999,0],"rotation":[0,0,0,1],"scale":[1,1,1],"children":[15]},{"name":"ankleR","translation":[0.001999998,-0.176,0],"rotation":[0,0,0,1],"scale":[1,1,1]}],"materials":[{"pbrMetallicRoughness":{"baseColorFactor":[0.72,0.65,0.48,1],"metallicFactor":0.0,"roughnessFactor":1.0}}],"skins":[{"joints":[1,2,3,4,5,6,7,8,9,10,11,12,13,14,15],"inverseBindMatrices":6,"skeleton":1}],"animations":[{"name":"idle","samplers":[{"input":7,"output":8,"interpolation":"LINEAR"},{"input":9,"output":10,"interpolation":"LINEAR"},{"input":11,"output":12,"interpolation":"LINEAR"},{"input":13,"output":14,"interpolation":"LINEAR"},{"input":15,"output":16,"interpolation":"LINEAR"},{"input":17,"output":18,"interpolation":"LINEAR"},{"input":19,"output":20,"interpolation":"LINEAR"}],"channels":[{"sampler":0,"target":{"node":1,"path":"translation"}},{"sampler":1,"target":{"node":2,"path":"rotation"}},{"sampler":2,"target":{"node":3,"path":"rotation"}},{"sampler":3,"target":{"node":4,"path":"rotation"}},{"sampler":4,"target":{"node":7,"path":"rotation"}},{"sampler":5,"target":{"node":5,"path":"rotation"}},{"sampler":6,"target":{"node":8,"path":"rotation"}}]},{"name":"walk","samplers":[{"input":21,"output":22,"interpolation":"LINEAR"},{"input":23,"output":24,"interpolation":"LINEAR"},{"input":25,"output":26,"interpolation":"LINEAR"},{"input":27,"output":28,"interpolation":"LINEAR"},{"input":29,"output":30,"interpolation":"LINEAR"},{"input":31,"output":32,"interpolation":"LINEAR"},{"input":33,"output":34,"interpolation":"LINEAR"},{"input":35,"output":36,"interpolation":"LINEAR"},{"input":37,"output":38,"interpolation":"LINEAR"}],"channels":[{"sampler":0,"target":{"node":10,"path":"rotation"}},{"sampler":1,"target":{"node":13,"path":"rotation"}},{"sampler":2,"target":{"node":11,"path":"rotation"}},{"sampler":3,"target":{"node":14,"path":"rotation"}},{"sampler":4,"target":{"node":4,"path":"rotation"}},{"sampler":5,"target":{"node":7,"path":"rotation"}},{"sampler":6,"target":{"node":5,"path":"rotation"}},{"sampler":7,"target":{"node":8,"path":"rotation"}},{"sampler":8,"target":{"node":1,"path":"translation"}}]},{"name":"attack","samplers":[{"input":39,"output":40,"interpolation":"LINEAR"},{"input":41,"output":42,"interpolation":"LINEAR"},{"input":43,"output":44,"interpolation":"LINEAR"},{"input":45,"output":46,"interpolation":"LINEAR"}],"channels":[{"sampler":0,"target":{"node":7,"path":"rotation"}},{"sampler":1,"target":{"node":8,"path":"rotation"}},{"sampler":2,"target":{"node":2,"path":"rotation"}},{"sampler":3,"target":{"node":1,"path":"translation"}}]},{"name":"die","samplers":[{"input":47,"output":48,"interpolation":"LINEAR"},{"input":49,"output":50,"interpolation":"LINEAR"},{"input":51,"output":52,"interpolation":"LINEAR"},{"input":53,"output":54,"interpolation":"LINEAR"},{"input":55,"output":56,"interpolation":"LINEAR"},{"input":57,"output":58,"interpolation":"LINEAR"},{"input":59,"output":60,"interpolation":"LINEAR"},{"input":61,"output":62,"interpolation":"LINEAR"},{"input":63,"output":64,"interpolation":"LINEAR"}],"channels":[{"sampler":0,"target":{"node":1,"path":"translation"}},{"sampler":1,"target":{"node":1,"path":"rotation"}},{"sampler":2,"target":{"node":2,"path":"rotation"}},{"sampler":3,"target":{"node":4,"path":"rotation"}},{"sampler":4,"target":{"node":7,"path":"rotation"}},{"sampler":5,"target":{"node":5,"path":"rotation"}},{"sampler":6,"target":{"node":8,"path":"rotation"}},{"sampler":7,"target":{"node":11,"path":"rotation"}},{"sampler":8,"target":{"node":14,"path":"rotation"}}]}],"meshes":[{"primitives":[{"attributes":{"POSITION":0,"NORMAL":1,"TEXCOORD_0":2,"JOINTS_0":3,"WEIGHTS_0":4},"indices":5,"material":0}]}],"buffers":[{"byteLength":99420,"uri":"data:application/octet-stream;base64,"}],"bufferViews":[{"buffer":0,"byteOffset":0,"byteLength":14868},{"buffer":0,"byteOffset":14868,"byteLength":14868},{"buffer":0,"byteOffset":29736,"byteLength":9912},{"buffer":0,"byteOffset":39648,"byteLength":9912},{"buffer":0,"byteOffset":49560,"byteLength":19824},{"buffer":0,"byteOffset":69384,"byteLength":18048},{"buffer":0,"byteOffset":87432,"byteLength":960},{"buffer":0,"byteOffset":88392,"byteLength":100},{"buffer":0,"byteOffset":88492,"byteLength":300},{"buffer":0,"byteOffset":88792,"byteLength":100},{"buffer":0,"byteOffset":88892,"byteLength":400},{"buffer":0,"byteOffset":89292,"byteLength":100},{"buffer":0,"byteOffset":89392,"byteLength":400},{"buffer":0,"byteOffset":89792,"byteLength":100},{"buffer":0,"byteOffset":89892,"byteLength":400},{"buffer":0,"byteOffset":90292,"byteLength":100},{"buffer":0,"byteOffset":90392,"byteLength":400},{"buffer":0,"byteOffset":90792,"byteLength":100},{"buffer":0,"byteOffset":90892,"byteLength":400},{"buffer":0,"byteOffset":91292,"byteLength":100},{"buffer":0,"byteOffset":91392,"byteLength":400},{"buffer":0,"byteOffset":91792,"byteLength":84},{"buffer":0,"byteOffset":91876,"byteLength":336},{"buffer":0,"byteOffset":92212,"byteLength":84},{"buffer":0,"byteOffset":92296,"byteLength":336},{"buffer":0,"byteOffset":92632,"byteLength":84},{"buffer":0,"byteOffset":92716,"byteLength":336},{"buffer":0,"byteOffset":93052,"byteLength":84},{"buffer":0,"byteOffset":93136,"byteLength":336},{"buffer":0,"byteOffset":93472,"byteLength":84},{"buffer":0,"byteOffset":93556,"byteLength":336},{"buffer":0,"byteOffset":93892,"byteLength":84},{"buffer":0,"byteOffset":93976,"byteLength":336},{"buffer":0,"byteOffset":94312,"byteLength":84},{"buffer":0,"byteOffset":94396,"byteLength":336},{"buffer":0,"byteOffset":94732,"byteLength":84},{"buffer":0,"byteOffset":94816,"byteLength":336},{"buffer":0,"byteOffset":95152,"byteLength":84},{"buffer":0,"byteOffset":95236,"byteLength":252},{"buffer":0,"byteOffset":95488,"byteLength":68},{"buffer":0,"byteOffset":95556,"byteLength":272},{"buffer":0,"byteOffset":95828,"byteLength":68},{"buffer":0,"byteOffset":95896,"byteLength":272},{"buffer":0,"byteOffset":96168,"byteLength":68},{"buffer":0,"byteOffset":96236,"byteLength":272},{"buffer":0,"byteOffset":96508,"byteLength":68},{"buffer":0,"byteOffset":96576,"byteLength":204},{"buffer":0,"byteOffset":96780,"byteLength":60},{"buffer":0,"byteOffset":96840,"byteLength":180},{"buffer":0,"byteOffset":97020,"byteLength":60},{"buffer":0,"byteOffset":97080,"byteLength":240},{"buffer":0,"byteOffset":97320,"byteLength":60},{"buffer":0,"byteOffset":97380,"byteLength":240},{"buffer":0,"byteOffset":97620,"byteLength":60},{"buffer":0,"byteOffset":97680,"byteLength":240},{"buffer":0,"byteOffset":97920,"byteLength":60},{"buffer":0,"byteOffset":97980,"byteLength":240},{"buffer":0,"byteOffset":98220,"byteLength":60},{"buffer":0,"byteOffset":98280,"byteLength":240},{"buffer":0,"byteOffset":98520,"byteLength":60},{"buffer":0,"byteOffset":98580,"byteLength":240},{"buffer":0,"byteOffset":98820,"byteLength":60},{"buffer":0,"byteOffset":98880,"byteLength":240},{"buffer":0,"byteOffset":99120,"byteLength":60},{"buffer":0,"byteOffset":99180,"byteLength":240}],"accessors":[{"bufferView":0,"componentType":5126,"count":1239,"type":"VEC3","min":[-0.1472,-0.0050000027,-0.1015],"max":[0.1472,0.7809,0.1015]},{"bufferView":1,"componentType":5126,"count":1239,"type":"VEC3"},{"bufferView":2,"componentType":5126,"count":1239,"type":"VEC2"},{"bufferView":3,"componentType":5123,"count":1239,"type":"VEC4"},{"bufferView":4,"componentType":5126,"count":1239,"type":"VEC4"},{"bufferView":5,"componentType":5125,"count":4512,"type":"SCALAR"},{"bufferView":6,"componentType":5126,"count":15,"type":"MAT4"},{"bufferView":7,"componentType":5126,"count":25,"type":"SCALAR","min":[0],"max":[5]},{"bufferView":8,"componentType":5126,"count":25,"type":"VEC3"},{"bufferView":9,"componentType":5126,"count":25,"type":"SCALAR","min":[0],"max":[5]},{"bufferView":10,"componentType":5126,"count":25,"type":"VEC4"},{"bufferView":11,"componentType":5126,"count":25,"type":"SCALAR","min":[0],"max":[5]},{"bufferView":12,"componentType":5126,"count":25,"type":"VEC4"},{"bufferView":13,"componentType":5126,"count":25,"type":"SCALAR","min":[0],"max":[5]},{"bufferView":14,"componentType":5126,"count":25,"type":"VEC4"},{"bufferView":15,"componentType":5126,"count":25,"type":"SCALAR","min":[0],"max":[5]},{"bufferView":16,"componentType":5126,"count":25,"type":"VEC4"},{"bufferView":17,"componentType":5126,"count":25,"type":"SCALAR","min":[0],"max":[5]},{"bufferView":18,"componentType":5126,"count":25,"type":"VEC4"},{"bufferView":19,"componentType":5126,"count":25,"type":"SCALAR","min":[0],"max":[5]},{"bufferView":20,"componentType":5126,"count":25,"type":"VEC4"},{"bufferView":21,"componentType":5126,"count":21,"type":"SCALAR","min":[0],"max":[0.72]},{"bufferView":22,"componentType":5126,"count":21,"type":"VEC4"},{"bufferView":23,"componentType":5126,"count":21,"type":"SCALAR","min":[0],"max":[0.72]},{"bufferView":24,"componentType":5126,"count":21,"type":"VEC4"},{"bufferView":25,"componentType":5126,"count":21,"type":"SCALAR","min":[0],"max":[0.72]},{"bufferView":26,"componentType":5126,"count":21,"type":"VEC4"},{"bufferView":27,"componentType":5126,"count":21,"type":"SCALAR","min":[0],"max":[0.72]},{"bufferView":28,"componentType":5126,"count":21,"type":"VEC4"},{"bufferView":29,"componentType":5126,"count":21,"type":"SCALAR","min":[0],"max":[0.72]},{"bufferView":30,"componentType":5126,"count":21,"type":"VEC4"},{"bufferView":31,"componentType":5126,"count":21,"type":"SCALAR","min":[0],"max":[0.72]},{"bufferView":32,"componentType":5126,"count":21,"type":"VEC4"},{"bufferView":33,"componentType":5126,"count":21,"type":"SCALAR","min":[0],"max":[0.72]},{"bufferView":34,"componentType":5126,"count":21,"type":"VEC4"},{"bufferView":35,"componentType":5126,"count":21,"type":"SCALAR","min":[0],"max":[0.72]},{"bufferView":36,"componentType":5126,"count":21,"type":"VEC4"},{"bufferView":37,"componentType":5126,"count":21,"type":"SCALAR","min":[0],"max":[0.72]},{"bufferView":38,"componentType":5126,"count":21,"type":"VEC3"},{"bufferView":39,"componentType":5126,"count":17,"type":"SCALAR","min":[0],"max":[0.65]},{"bufferView":40,"componentType":5126,"count":17,"type":"VEC4"},{"bufferView":41,"componentType":5126,"count":17,"type":"SCALAR","min":[0],"max":[0.65]},{"bufferView":42,"componentType":5126,"count":17,"type":"VEC4"},{"bufferView":43,"componentType":5126,"count":17,"type":"SCALAR","min":[0],"max":[0.65]},{"bufferView":44,"componentType":5126,"count":17,"type":"VEC4"},{"bufferView":45,"componentType":5126,"count":17,"type":"SCALAR","min":[0],"max":[0.65]},{"bufferView":46,"componentType":5126,"count":17,"type":"VEC3"},{"bufferView":47,"componentType":5126,"count":15,"type":"SCALAR","min":[0],"max":[0.9]},{"bufferView":48,"componentType":5126,"count":15,"type":"VEC3"},{"bufferView":49,"componentType":5126,"count":15,"type":"SCALAR","min":[0],"max":[0.9]},{"bufferView":50,"componentType":5126,"count":15,"type":"VEC4"},{"bufferView":51,"componentType":5126,"count":15,"type":"SCALAR","min":[0],"max":[0.9]},{"bufferView":52,"componentType":5126,"count":15,"type":"VEC4"},{"bufferView":53,"componentType":5126,"count":15,"type":"SCALAR","min":[0],"max":[0.9]},{"bufferView":54,"componentType":5126,"count":15,"type":"VEC4"},{"bufferView":55,"componentType":5126,"count":15,"type":"SCALAR","min":[0],"max":[0.9]},{"bufferView":56,"componentType":5126,"count":15,"type":"VEC4"},{"bufferView":57,"componentType":5126,"count":15,"type":"SCALAR","min":[0],"max":[0.9]},{"bufferView":58,"componentType":5126,"count":15,"type":"VEC4"},{"bufferView":59,"componentType":5126,"count":15,"type":"SCALAR","min":[0],"max":[0.9]},{"bufferView":60,"componentType":5126,"count":15,"type":"VEC4"},{"bufferView":61,"componentType":5126,"count":15,"type":"SCALAR","min":[0],"max":[0.9]},{"bufferView":62,"componentType":5126,"count":15,"type":"VEC4"},{"bufferView":63,"componentType":5126,"count":15,"type":"SCALAR","min":[0],"max":[0.9]},{"bufferView":64,"componentType":5126,"count":15,"type":"VEC4"}]}