{"asset":{"version":"2.0","generator":"Dungeon AssetBaker"},"scene":0,"scenes":[{"nodes":[0,1]}],"nodes":[{"mesh":0,"skin":0},{"name":"spine0","translation":[0,0,0],"rotation":[0,0,0,1],"scale":[1,1,1],"children":[2]},{"name":"spine1","translation":[0,0.55,0],"rotation":[0,0,0,1],"scale":[1,1,1],"children":[3]},{"name":"spine2","translation":[0,0.55,0],"rotation":[0,0,0,1],"scale":[1,1,1],"children":[4]},{"name":"spine3","translation":[0,0.55,0],"rotation":[0,0,0,1],"scale":[1,1,1]}],"materials":[{"pbrMetallicRoughness":{"baseColorFactor":[0.35,0.85,0.65,1],"metallicFactor":0.0,"roughnessFactor":1.0}}],"skins":[{"joints":[1,2,3,4],"inverseBindMatrices":6,"skeleton":1}],"animations":[{"name":"sway","samplers":[{"input":7,"output":8,"interpolation":"LINEAR"},{"input":9,"output":10,"interpolation":"LINEAR"},{"input":11,"output":12,"interpolation":"LINEAR"}],"channels":[{"sampler":0,"target":{"node":2,"path":"rotation"}},{"sampler":1,"target":{"node":3,"path":"rotation"}},{"sampler":2,"target":{"node":4,"path":"rotation"}}]}],"meshes":[{"primitives":[{"attributes":{"POSITION":0,"NORMAL":1,"TEXCOORD_0":2,"JOINTS_0":3,"WEIGHTS_0":4},"indices":5,"material":0}]}],"buffers":[{"byteLength":69124,"uri":"data:application/octet-stream;base64,"}],"bufferViews":[{"buffer":0,"byteOffset":0,"byteLength":10260},{"buffer":0,"byteOffset":10260,"byteLength":10260},{"buffer":0,"byteOffset":20520,"byteLength":6840},{"buffer":0,"byteOffset":27360,"byteLength":6840},{"buffer":0,"byteOffset":34200,"byteLength":13680},{"buffer":0,"byteOffset":47880,"byteLength":19008},{"buffer":0,"byteOffset":66888,"byteLength":256},{"buffer":0,"byteOffset":67144,"byteLength":132},{"buffer":0,"byteOffset":67276,"byteLength":528},{"buffer":0,"byteOffset":67804,"byteLength":132},{"buffer":0,"byteOffset":67936,"byteLength":528},{"buffer":0,"byteOffset":68464,"byteLength":132},{"buffer":0,"byteOffset":68596,"byteLength":528}],"accessors":[{"bufferView":0,"componentType":5126,"count":855,"type":"VEC3","min":[-0.15491867,0,-0.1525651],"max":[0.15491867,2.2,0.1525651]},{"bufferView":1,"componentType":5126,"count":855,"type":"VEC3"},{"bufferView":2,"componentType":5126,"count":855,"type":"VEC2"},{"bufferView":3,"componentType":5123,"count":855,"type":"VEC4"},{"bufferView":4,"componentType":5126,"count":855,"type":"VEC4"},{"bufferView":5,"componentType":5125,"count":4752,"type":"SCALAR"},{"bufferView":6,"componentType":5126,"count":4,"type":"MAT4"},{"bufferView":7,"componentType":5126,"count":33,"type":"SCALAR","min":[0],"max":[4]},{"bufferView":8,"componentType":5126,"count":33,"type":"VEC4"},{"bufferView":9,"componentType":5126,"count":33,"type":"SCALAR","min":[0],"max":[4]},{"bufferView":10,"componentType":5126,"count":33,"type":"VEC4"},{"bufferView":11,"componentType":5126,"count":33,"type":"SCALAR","min":[0],"max":[4]},{"bufferView":12,"componentType":5126,"count":33,"type":"VEC4"}]}