{"asset":{"version":"2.0","generator":"Dungeon AssetBaker"},"scene":0,"scenes":[{"nodes":[0]}],"nodes":[{"mesh":0}],"materials":[{"pbrMetallicRoughness":{"baseColorFactor":[1,1,1,1],"metallicFactor":0.0,"roughnessFactor":1.0}}],"meshes":[{"primitives":[{"attributes":{"POSITION":0,"NORMAL":1,"TEXCOORD_0":2},"indices":3,"material":0}]}],"buffers":[{"byteLength":38992,"uri":"data:application/octet-stream;base64,"}],"bufferViews":[{"buffer":0,"byteOffset":0,"byteLength":12192},{"buffer":0,"byteOffset":12192,"byteLength":12192},{"buffer":0,"byteOffset":24384,"byteLength":8128},{"buffer":0,"byteOffset":32512,"byteLength":6480}],"accessors":[{"bufferView":0,"componentType":5126,"count":1016,"type":"VEC3","min":[-0.18,0,-0.18],"max":[0.18,0.42,0.18]},{"bufferView":1,"componentType":5126,"count":1016,"type":"VEC3"},{"bufferView":2,"componentType":5126,"count":1016,"type":"VEC2"},{"bufferView":3,"componentType":5125,"count":1620,"type":"SCALAR"}]}