{"asset":{"version":"2.0","generator":"Dungeon AssetBaker"},"scene":0,"scenes":[{"nodes":[0]}],"nodes":[{"mesh":0}],"materials":[{"pbrMetallicRoughness":{"baseColorFactor":[0.34,0.33,0.34,1],"metallicFactor":0.0,"roughnessFactor":1.0}}],"meshes":[{"primitives":[{"attributes":{"POSITION":0,"NORMAL":1,"TEXCOORD_0":2},"indices":3,"material":0}]}],"buffers":[{"byteLength":40000,"uri":"data:application/octet-stream;base64,"}],"bufferViews":[{"buffer":0,"byteOffset":0,"byteLength":12480},{"buffer":0,"byteOffset":12480,"byteLength":12480},{"buffer":0,"byteOffset":24960,"byteLength":8320},{"buffer":0,"byteOffset":33280,"byteLength":6720}],"accessors":[{"bufferView":0,"componentType":5126,"count":1040,"type":"VEC3","min":[-1.1099999,0,-0.075],"max":[1.1099999,2.4099998,0.075]},{"bufferView":1,"componentType":5126,"count":1040,"type":"VEC3"},{"bufferView":2,"componentType":5126,"count":1040,"type":"VEC2"},{"bufferView":3,"componentType":5125,"count":1680,"type":"SCALAR"}]}