{"asset":{"version":"2.0","generator":"Dungeon AssetBaker"},"scene":0,"scenes":[{"nodes":[0]}],"nodes":[{"mesh":0}],"materials":[{"pbrMetallicRoughness":{"baseColorFactor":[1,1,1,1],"metallicFactor":0.0,"roughnessFactor":1.0}}],"meshes":[{"primitives":[{"attributes":{"POSITION":0,"NORMAL":1,"TEXCOORD_0":2},"indices":3,"material":0}]}],"buffers":[{"byteLength":184304,"uri":"data:application/octet-stream;base64,"}],"bufferViews":[{"buffer":0,"byteOffset":0,"byteLength":59232},{"buffer":0,"byteOffset":59232,"byteLength":59232},{"buffer":0,"byteOffset":118464,"byteLength":39488},{"buffer":0,"byteOffset":157952,"byteLength":26352}],"accessors":[{"bufferView":0,"componentType":5126,"count":4936,"type":"VEC3","min":[-0.34,0,-0.019995827],"max":[0.34,0.84,0.019995827]},{"bufferView":1,"componentType":5126,"count":4936,"type":"VEC3"},{"bufferView":2,"componentType":5126,"count":4936,"type":"VEC2"},{"bufferView":3,"componentType":5125,"count":6588,"type":"SCALAR"}]}