{"asset":{"version":"2.0","generator":"Dungeon AssetBaker"},"scene":0,"scenes":[{"nodes":[0]}],"nodes":[{"mesh":0}],"materials":[{"pbrMetallicRoughness":{"baseColorFactor":[1,1,1,1],"metallicFactor":0.0,"roughnessFactor":1.0}}],"meshes":[{"primitives":[{"attributes":{"POSITION":0,"NORMAL":1,"TEXCOORD_0":2},"indices":3,"material":0}]}],"buffers":[{"byteLength":65664,"uri":"data:application/octet-stream;base64,"}],"bufferViews":[{"buffer":0,"byteOffset":0,"byteLength":21888},{"buffer":0,"byteOffset":21888,"byteLength":21888},{"buffer":0,"byteOffset":43776,"byteLength":14592},{"buffer":0,"byteOffset":58368,"byteLength":7296}],"accessors":[{"bufferView":0,"componentType":5126,"count":1824,"type":"VEC3","min":[-0.5260491,0,-0.43296042],"max":[0.5260491,0.6999999,0.43296042]},{"bufferView":1,"componentType":5126,"count":1824,"type":"VEC3"},{"bufferView":2,"componentType":5126,"count":1824,"type":"VEC2"},{"bufferView":3,"componentType":5125,"count":1824,"type":"SCALAR"}]}