{"asset":{"version":"2.0","generator":"Dungeon AssetBaker"},"scene":0,"scenes":[{"nodes":[0]}],"nodes":[{"mesh":0}],"materials":[{"pbrMetallicRoughness":{"baseColorFactor":[0.62,0.49,0.3,1],"metallicFactor":0.0,"roughnessFactor":1.0}}],"meshes":[{"primitives":[{"attributes":{"POSITION":0,"NORMAL":1,"TEXCOORD_0":2},"indices":3,"material":0}]}],"buffers":[{"byteLength":39840,"uri":"data:application/octet-stream;base64,"}],"bufferViews":[{"buffer":0,"byteOffset":0,"byteLength":8892},{"buffer":0,"byteOffset":8892,"byteLength":8892},{"buffer":0,"byteOffset":17784,"byteLength":5928},{"buffer":0,"byteOffset":23712,"byteLength":16128}],"accessors":[{"bufferView":0,"componentType":5126,"count":741,"type":"VEC3","min":[-0.142,0,-0.142],"max":[0.142,0.044,0.142]},{"bufferView":1,"componentType":5126,"count":741,"type":"VEC3"},{"bufferView":2,"componentType":5126,"count":741,"type":"VEC2"},{"bufferView":3,"componentType":5125,"count":4032,"type":"SCALAR"}]}