{"asset":{"version":"2.0","generator":"Dungeon AssetBaker"},"scene":0,"scenes":[{"nodes":[0]}],"nodes":[{"mesh":0}],"materials":[{"pbrMetallicRoughness":{"baseColorFactor":[0.5,0.5,0.52,1],"metallicFactor":0.0,"roughnessFactor":1.0}}],"meshes":[{"primitives":[{"attributes":{"POSITION":0,"NORMAL":1,"TEXCOORD_0":2},"indices":3,"material":0}]}],"buffers":[{"byteLength":23408,"uri":"data:application/octet-stream;base64,"}],"bufferViews":[{"buffer":0,"byteOffset":0,"byteLength":7392},{"buffer":0,"byteOffset":7392,"byteLength":7392},{"buffer":0,"byteOffset":14784,"byteLength":4928},{"buffer":0,"byteOffset":19712,"byteLength":3696}],"accessors":[{"bufferView":0,"componentType":5126,"count":616,"type":"VEC3","min":[-0.034008093,0.00011375389,-0.006353684],"max":[0.033748314,0.060015976,0.0064207762]},{"bufferView":1,"componentType":5126,"count":616,"type":"VEC3"},{"bufferView":2,"componentType":5126,"count":616,"type":"VEC2"},{"bufferView":3,"componentType":5125,"count":924,"type":"SCALAR"}]}