{"asset":{"version":"2.0","generator":"Dungeon AssetBaker"},"scene":0,"scenes":[{"nodes":[0]}],"nodes":[{"mesh":0}],"materials":[{"pbrMetallicRoughness":{"baseColorFactor":[0.35,0.32,0.3,1],"metallicFactor":0.0,"roughnessFactor":1.0}}],"meshes":[{"primitives":[{"attributes":{"POSITION":0,"NORMAL":1,"TEXCOORD_0":2},"indices":3,"material":0}]}],"buffers":[{"byteLength":21392,"uri":"data:application/octet-stream;base64,"}],"bufferViews":[{"buffer":0,"byteOffset":0,"byteLength":5700},{"buffer":0,"byteOffset":5700,"byteLength":5700},{"buffer":0,"byteOffset":11400,"byteLength":3800},{"buffer":0,"byteOffset":15200,"byteLength":6192}],"accessors":[{"bufferView":0,"componentType":5126,"count":475,"type":"VEC3","min":[-0.031999998,0.50839996,0],"max":[0.031999998,0.71599996,0.116799995]},{"bufferView":1,"componentType":5126,"count":475,"type":"VEC3"},{"bufferView":2,"componentType":5126,"count":475,"type":"VEC2"},{"bufferView":3,"componentType":5125,"count":1548,"type":"SCALAR"}]}