{"asset":{"version":"2.0","generator":"Dungeon AssetBaker"},"scene":0,"scenes":[{"nodes":[0,1]}],"nodes":[{"mesh":0,"skin":0},{"name":"root","translation":[0,1,0],"rotation":[0,0,0,1],"scale":[1,1,1],"children":[2,6,7]},{"name":"spine","translation":[0,0.29999995,0],"rotation":[0,0,0,1],"scale":[1,1,1],"children":[3,4,5]},{"name":"head","translation":[0,0.4000001,0],"rotation":[0,0,0,1],"scale":[1,1,1]},{"name":"armL","translation":[-0.28,0.25,0],"rotation":[0,0,0,1],"scale":[1,1,1]},{"name":"armR","translation":[0.28,0.25,0],"rotation":[0,0,0,1],"scale":[1,1,1]},{"name":"legL","translation":[-0.12,-0.050000012,0],"rotation":[0,0,0,1],"scale":[1,1,1]},{"name":"legR","translation":[0.12,-0.050000012,0],"rotation":[0,0,0,1],"scale":[1,1,1]}],"materials":[{"pbrMetallicRoughness":{"baseColorFactor":[0.93,0.9,0.8,1],"metallicFactor":0.0,"roughnessFactor":1.0}}],"skins":[{"joints":[1,2,3,4,5,6,7],"inverseBindMatrices":6,"skeleton":1}],"animations":[{"name":"idle","samplers":[{"input":7,"output":8,"interpolation":"LINEAR"},{"input":9,"output":10,"interpolation":"LINEAR"},{"input":11,"output":12,"interpolation":"LINEAR"},{"input":13,"output":14,"interpolation":"LINEAR"},{"input":15,"output":16,"interpolation":"LINEAR"}],"channels":[{"sampler":0,"target":{"node":1,"path":"translation"}},{"sampler":1,"target":{"node":2,"path":"rotation"}},{"sampler":2,"target":{"node":3,"path":"rotation"}},{"sampler":3,"target":{"node":4,"path":"rotation"}},{"sampler":4,"target":{"node":5,"path":"rotation"}}]}],"meshes":[{"primitives":[{"attributes":{"POSITION":0,"NORMAL":1,"TEXCOORD_0":2,"JOINTS_0":3,"WEIGHTS_0":4},"indices":5,"material":0}]}],"buffers":[{"byteLength":13264,"uri":"data:application/octet-stream;base64,"}],"bufferViews":[{"buffer":0,"byteOffset":0,"byteLength":2016},{"buffer":0,"byteOffset":2016,"byteLength":2016},{"buffer":0,"byteOffset":4032,"byteLength":1344},{"buffer":0,"byteOffset":5376,"byteLength":1344},{"buffer":0,"byteOffset":6720,"byteLength":2688},{"buffer":0,"byteOffset":9408,"byteLength":1008},{"buffer":0,"byteOffset":10416,"byteLength":448},{"buffer":0,"byteOffset":10864,"byteLength":100},{"buffer":0,"byteOffset":10964,"byteLength":300},{"buffer":0,"byteOffset":11264,"byteLength":100},{"buffer":0,"byteOffset":11364,"byteLength":400},{"buffer":0,"byteOffset":11764,"byteLength":100},{"buffer":0,"byteOffset":11864,"byteLength":400},{"buffer":0,"byteOffset":12264,"byteLength":100},{"buffer":0,"byteOffset":12364,"byteLength":400},{"buffer":0,"byteOffset":12764,"byteLength":100},{"buffer":0,"byteOffset":12864,"byteLength":400}],"accessors":[{"bufferView":0,"componentType":5126,"count":168,"type":"VEC3","min":[-0.3725,0.050000012,-0.08075],"max":[0.3725,1.91,0.08075]},{"bufferView":1,"componentType":5126,"count":168,"type":"VEC3"},{"bufferView":2,"componentType":5126,"count":168,"type":"VEC2"},{"bufferView":3,"componentType":5123,"count":168,"type":"VEC4"},{"bufferView":4,"componentType":5126,"count":168,"type":"VEC4"},{"bufferView":5,"componentType":5125,"count":252,"type":"SCALAR"},{"bufferView":6,"componentType":5126,"count":7,"type":"MAT4"},{"bufferView":7,"componentType":5126,"count":25,"type":"SCALAR","min":[0],"max":[3.2]},{"bufferView":8,"componentType":5126,"count":25,"type":"VEC3"},{"bufferView":9,"componentType":5126,"count":25,"type":"SCALAR","min":[0],"max":[3.2]},{"bufferView":10,"componentType":5126,"count":25,"type":"VEC4"},{"bufferView":11,"componentType":5126,"count":25,"type":"SCALAR","min":[0],"max":[3.2]},{"bufferView":12,"componentType":5126,"count":25,"type":"VEC4"},{"bufferView":13,"componentType":5126,"count":25,"type":"SCALAR","min":[0],"max":[3.2]},{"bufferView":14,"componentType":5126,"count":25,"type":"VEC4"},{"bufferView":15,"componentType":5126,"count":25,"type":"SCALAR","min":[0],"max":[3.2]},{"bufferView":16,"componentType":5126,"count":25,"type":"VEC4"}]}