{"asset":{"version":"2.0","generator":"Dungeon AssetBaker"},"scene":0,"scenes":[{"nodes":[0,1]}],"nodes":[{"mesh":0,"skin":0},{"name":"root","translation":[0,1,0],"rotation":[0,0,0,1],"scale":[1,1,1],"children":[2,6,7]},{"name":"spine","translation":[0,0.29999995,0],"rotation":[0,0,0,1],"scale":[1,1,1],"children":[3,4,5]},{"name":"head","translation":[0,0.4000001,0],"rotation":[0,0,0,1],"scale":[1,1,1]},{"name":"armL","translation":[-0.28,0.25,0],"rotation":[0,0,0,1],"scale":[1,1,1]},{"name":"armR","translation":[0.28,0.25,0],"rotation":[0,0,0,1],"scale":[1,1,1]},{"name":"legL","translation":[-0.12,-0.050000012,0],"rotation":[0,0,0,1],"scale":[1,1,1]},{"name":"legR","translation":[0.12,-0.050000012,0],"rotation":[0,0,0,1],"scale":[1,1,1]}],"materials":[{"pbrMetallicRoughness":{"baseColorFactor":[0.93,0.9,0.8,1],"metallicFactor":0.0,"roughnessFactor":1.0}}],"skins":[{"joints":[1,2,3,4,5,6,7],"inverseBindMatrices":6,"skeleton":1}],"animations":[{"name":"idle","samplers":[{"input":7,"output":8,"interpolation":"LINEAR"},{"input":9,"output":10,"interpolation":"LINEAR"},{"input":11,"output":12,"interpolation":"LINEAR"},{"input":13,"output":14,"interpolation":"LINEAR"},{"input":15,"output":16,"interpolation":"LINEAR"}],"channels":[{"sampler":0,"target":{"node":1,"path":"translation"}},{"sampler":1,"target":{"node":2,"path":"rotation"}},{"sampler":2,"target":{"node":3,"path":"rotation"}},{"sampler":3,"target":{"node":4,"path":"rotation"}},{"sampler":4,"target":{"node":5,"path":"rotation"}}]},{"name":"walk","samplers":[{"input":17,"output":18,"interpolation":"LINEAR"},{"input":19,"output":20,"interpolation":"LINEAR"},{"input":21,"output":22,"interpolation":"LINEAR"},{"input":23,"output":24,"interpolation":"LINEAR"},{"input":25,"output":26,"interpolation":"LINEAR"}],"channels":[{"sampler":0,"target":{"node":6,"path":"rotation"}},{"sampler":1,"target":{"node":7,"path":"rotation"}},{"sampler":2,"target":{"node":4,"path":"rotation"}},{"sampler":3,"target":{"node":5,"path":"rotation"}},{"sampler":4,"target":{"node":1,"path":"translation"}}]},{"name":"attack","samplers":[{"input":27,"output":28,"interpolation":"LINEAR"},{"input":29,"output":30,"interpolation":"LINEAR"}],"channels":[{"sampler":0,"target":{"node":5,"path":"rotation"}},{"sampler":1,"target":{"node":2,"path":"rotation"}}]},{"name":"die","samplers":[{"input":31,"output":32,"interpolation":"LINEAR"},{"input":33,"output":34,"interpolation":"LINEAR"},{"input":35,"output":36,"interpolation":"LINEAR"},{"input":37,"output":38,"interpolation":"LINEAR"},{"input":39,"output":40,"interpolation":"LINEAR"}],"channels":[{"sampler":0,"target":{"node":1,"path":"translation"}},{"sampler":1,"target":{"node":1,"path":"rotation"}},{"sampler":2,"target":{"node":2,"path":"rotation"}},{"sampler":3,"target":{"node":4,"path":"rotation"}},{"sampler":4,"target":{"node":5,"path":"rotation"}}]}],"meshes":[{"primitives":[{"attributes":{"POSITION":0,"NORMAL":1,"TEXCOORD_0":2,"JOINTS_0":3,"WEIGHTS_0":4},"indices":5,"material":0}]}],"buffers":[{"byteLength":42256,"uri":"data:application/octet-stream;base64,"}],"bufferViews":[{"buffer":0,"byteOffset":0,"byteLength":6276},{"buffer":0,"byteOffset":6276,"byteLength":6276},{"buffer":0,"byteOffset":12552,"byteLength":4184},{"buffer":0,"byteOffset":16736,"byteLength":4184},{"buffer":0,"byteOffset":20920,"byteLength":8368},{"buffer":0,"byteOffset":29288,"byteLength":6720},{"buffer":0,"byteOffset":36008,"byteLength":448},{"buffer":0,"byteOffset":36456,"byteLength":100},{"buffer":0,"byteOffset":36556,"byteLength":300},{"buffer":0,"byteOffset":36856,"byteLength":100},{"buffer":0,"byteOffset":36956,"byteLength":400},{"buffer":0,"byteOffset":37356,"byteLength":100},{"buffer":0,"byteOffset":37456,"byteLength":400},{"buffer":0,"byteOffset":37856,"byteLength":100},{"buffer":0,"byteOffset":37956,"byteLength":400},{"buffer":0,"byteOffset":38356,"byteLength":100},{"buffer":0,"byteOffset":38456,"byteLength":400},{"buffer":0,"byteOffset":38856,"byteLength":68},{"buffer":0,"byteOffset":38924,"byteLength":272},{"buffer":0,"byteOffset":39196,"byteLength":68},{"buffer":0,"byteOffset":39264,"byteLength":272},{"buffer":0,"byteOffset":39536,"byteLength":68},{"buffer":0,"byteOffset":39604,"byteLength":272},{"buffer":0,"byteOffset":39876,"byteLength":68},{"buffer":0,"byteOffset":39944,"byteLength":272},{"buffer":0,"byteOffset":40216,"byteLength":68},{"buffer":0,"byteOffset":40284,"byteLength":204},{"buffer":0,"byteOffset":40488,"byteLength":52},{"buffer":0,"byteOffset":40540,"byteLength":208},{"buffer":0,"byteOffset":40748,"byteLength":52},{"buffer":0,"byteOffset":40800,"byteLength":208},{"buffer":0,"byteOffset":41008,"byteLength":52},{"buffer":0,"byteOffset":41060,"byteLength":156},{"buffer":0,"byteOffset":41216,"byteLength":52},{"buffer":0,"byteOffset":41268,"byteLength":208},{"buffer":0,"byteOffset":41476,"byteLength":52},{"buffer":0,"byteOffset":41528,"byteLength":208},{"buffer":0,"byteOffset":41736,"byteLength":52},{"buffer":0,"byteOffset":41788,"byteLength":208},{"buffer":0,"byteOffset":41996,"byteLength":52},{"buffer":0,"byteOffset":42048,"byteLength":208}],"accessors":[{"bufferView":0,"componentType":5126,"count":523,"type":"VEC3","min":[-0.33825037,0.0005308986,-0.14875],"max":[0.33825037,1.8892499,0.14875]},{"bufferView":1,"componentType":5126,"count":523,"type":"VEC3"},{"bufferView":2,"componentType":5126,"count":523,"type":"VEC2"},{"bufferView":3,"componentType":5123,"count":523,"type":"VEC4"},{"bufferView":4,"componentType":5126,"count":523,"type":"VEC4"},{"bufferView":5,"componentType":5125,"count":1680,"type":"SCALAR"},{"bufferView":6,"componentType":5126,"count":7,"type":"MAT4"},{"bufferView":7,"componentType":5126,"count":25,"type":"SCALAR","min":[0],"max":[3.2]},{"bufferView":8,"componentType":5126,"count":25,"type":"VEC3"},{"bufferView":9,"componentType":5126,"count":25,"type":"SCALAR","min":[0],"max":[3.2]},{"bufferView":10,"componentType":5126,"count":25,"type":"VEC4"},{"bufferView":11,"componentType":5126,"count":25,"type":"SCALAR","min":[0],"max":[3.2]},{"bufferView":12,"componentType":5126,"count":25,"type":"VEC4"},{"bufferView":13,"componentType":5126,"count":25,"type":"SCALAR","min":[0],"max":[3.2]},{"bufferView":14,"componentType":5126,"count":25,"type":"VEC4"},{"bufferView":15,"componentType":5126,"count":25,"type":"SCALAR","min":[0],"max":[3.2]},{"bufferView":16,"componentType":5126,"count":25,"type":"VEC4"},{"bufferView":17,"componentType":5126,"count":17,"type":"SCALAR","min":[0],"max":[0.72]},{"bufferView":18,"componentType":5126,"count":17,"type":"VEC4"},{"bufferView":19,"componentType":5126,"count":17,"type":"SCALAR","min":[0],"max":[0.72]},{"bufferView":20,"componentType":5126,"count":17,"type":"VEC4"},{"bufferView":21,"componentType":5126,"count":17,"type":"SCALAR","min":[0],"max":[0.72]},{"bufferView":22,"componentType":5126,"count":17,"type":"VEC4"},{"bufferView":23,"componentType":5126,"count":17,"type":"SCALAR","min":[0],"max":[0.72]},{"bufferView":24,"componentType":5126,"count":17,"type":"VEC4"},{"bufferView":25,"componentType":5126,"count":17,"type":"SCALAR","min":[0],"max":[0.72]},{"bufferView":26,"componentType":5126,"count":17,"type":"VEC3"},{"bufferView":27,"componentType":5126,"count":13,"type":"SCALAR","min":[0],"max":[0.55]},{"bufferView":28,"componentType":5126,"count":13,"type":"VEC4"},{"bufferView":29,"componentType":5126,"count":13,"type":"SCALAR","min":[0],"max":[0.55]},{"bufferView":30,"componentType":5126,"count":13,"type":"VEC4"},{"bufferView":31,"componentType":5126,"count":13,"type":"SCALAR","min":[0],"max":[0.9]},{"bufferView":32,"componentType":5126,"count":13,"type":"VEC3"},{"bufferView":33,"componentType":5126,"count":13,"type":"SCALAR","min":[0],"max":[0.9]},{"bufferView":34,"componentType":5126,"count":13,"type":"VEC4"},{"bufferView":35,"componentType":5126,"count":13,"type":"SCALAR","min":[0],"max":[0.9]},{"bufferView":36,"componentType":5126,"count":13,"type":"VEC4"},{"bufferView":37,"componentType":5126,"count":13,"type":"SCALAR","min":[0],"max":[0.9]},{"bufferView":38,"componentType":5126,"count":13,"type":"VEC4"},{"bufferView":39,"componentType":5126,"count":13,"type":"SCALAR","min":[0],"max":[0.9]},{"bufferView":40,"componentType":5126,"count":13,"type":"VEC4"}]}