{"asset":{"version":"2.0","generator":"Dungeon AssetBaker"},"scene":0,"scenes":[{"nodes":[0]}],"nodes":[{"mesh":0}],"materials":[{"pbrMetallicRoughness":{"baseColorFactor":[0.55,0.53,0.5,1],"metallicFactor":0.0,"roughnessFactor":1.0}}],"meshes":[{"primitives":[{"attributes":{"POSITION":0,"NORMAL":1,"TEXCOORD_0":2},"indices":3,"material":0}]}],"buffers":[{"byteLength":6384,"uri":"data:application/octet-stream;base64,"}],"bufferViews":[{"buffer":0,"byteOffset":0,"byteLength":2016},{"buffer":0,"byteOffset":2016,"byteLength":2016},{"buffer":0,"byteOffset":4032,"byteLength":1344},{"buffer":0,"byteOffset":5376,"byteLength":1008}],"accessors":[{"bufferView":0,"componentType":5126,"count":168,"type":"VEC3","min":[-0.34,0,-0.336],"max":[0.34,0.476,0.336]},{"bufferView":1,"componentType":5126,"count":168,"type":"VEC3"},{"bufferView":2,"componentType":5126,"count":168,"type":"VEC2"},{"bufferView":3,"componentType":5125,"count":252,"type":"SCALAR"}]}