{"asset":{"version":"2.0","generator":"Dungeon AssetBaker"},"scene":0,"scenes":[{"nodes":[0]}],"nodes":[{"mesh":0}],"materials":[{"pbrMetallicRoughness":{"baseColorFactor":[0.76,0.74,0.7,1],"metallicFactor":0.0,"roughnessFactor":1.0}}],"meshes":[{"primitives":[{"attributes":{"POSITION":0,"NORMAL":1,"TEXCOORD_0":2},"indices":3,"material":0}]}],"buffers":[{"byteLength":9216,"uri":"data:application/octet-stream;base64,"}],"bufferViews":[{"buffer":0,"byteOffset":0,"byteLength":2628},{"buffer":0,"byteOffset":2628,"byteLength":2628},{"buffer":0,"byteOffset":5256,"byteLength":1752},{"buffer":0,"byteOffset":7008,"byteLength":2208}],"accessors":[{"bufferView":0,"componentType":5126,"count":219,"type":"VEC3","min":[-0.36,0,-0.36],"max":[0.36,1.8,0.36]},{"bufferView":1,"componentType":5126,"count":219,"type":"VEC3"},{"bufferView":2,"componentType":5126,"count":219,"type":"VEC2"},{"bufferView":3,"componentType":5125,"count":552,"type":"SCALAR"}]}