{"asset":{"version":"2.0","generator":"Dungeon AssetBaker"},"scene":0,"scenes":[{"nodes":[0]}],"nodes":[{"mesh":0}],"materials":[{"pbrMetallicRoughness":{"baseColorFactor":[1,1,1,1],"metallicFactor":0.0,"roughnessFactor":1.0}}],"meshes":[{"primitives":[{"attributes":{"POSITION":0,"NORMAL":1,"TEXCOORD_0":2},"indices":3,"material":0}]}],"buffers":[{"byteLength":142432,"uri":"data:application/octet-stream;base64,"}],"bufferViews":[{"buffer":0,"byteOffset":0,"byteLength":31164},{"buffer":0,"byteOffset":31164,"byteLength":31164},{"buffer":0,"byteOffset":62328,"byteLength":20776},{"buffer":0,"byteOffset":83104,"byteLength":59328}],"accessors":[{"bufferView":0,"componentType":5126,"count":2597,"type":"VEC3","min":[-1,0,-0.11755134],"max":[1,2.5,0.085]},{"bufferView":1,"componentType":5126,"count":2597,"type":"VEC3"},{"bufferView":2,"componentType":5126,"count":2597,"type":"VEC2"},{"bufferView":3,"componentType":5125,"count":14832,"type":"SCALAR"}]}