{"asset":{"version":"2.0","generator":"Dungeon AssetBaker"},"scene":0,"scenes":[{"nodes":[0]}],"nodes":[{"mesh":0}],"materials":[{"pbrMetallicRoughness":{"baseColorFactor":[1,1,1,1],"metallicFactor":0.0,"roughnessFactor":1.0}}],"meshes":[{"primitives":[{"attributes":{"POSITION":0,"NORMAL":1,"TEXCOORD_0":2},"indices":3,"material":0}]}],"buffers":[{"byteLength":2432,"uri":"data:application/octet-stream;base64,"}],"bufferViews":[{"buffer":0,"byteOffset":0,"byteLength":768},{"buffer":0,"byteOffset":768,"byteLength":768},{"buffer":0,"byteOffset":1536,"byteLength":512},{"buffer":0,"byteOffset":2048,"byteLength":384}],"accessors":[{"bufferView":0,"componentType":5126,"count":64,"type":"VEC3","min":[-1.2,0,-1.2],"max":[1.2,2.5,0.085]},{"bufferView":1,"componentType":5126,"count":64,"type":"VEC3"},{"bufferView":2,"componentType":5126,"count":64,"type":"VEC2"},{"bufferView":3,"componentType":5125,"count":96,"type":"SCALAR"}]}