{"asset":{"version":"2.0","generator":"Dungeon AssetBaker"},"scene":0,"scenes":[{"nodes":[0]}],"nodes":[{"mesh":0}],"materials":[{"pbrMetallicRoughness":{"baseColorFactor":[1,1,1,1],"metallicFactor":0.0,"roughnessFactor":1.0}}],"meshes":[{"primitives":[{"attributes":{"POSITION":0,"NORMAL":1,"TEXCOORD_0":2},"indices":3,"material":0}]}],"buffers":[{"byteLength":68832,"uri":"data:application/octet-stream;base64,"}],"bufferViews":[{"buffer":0,"byteOffset":0,"byteLength":16956},{"buffer":0,"byteOffset":16956,"byteLength":16956},{"buffer":0,"byteOffset":33912,"byteLength":11304},{"buffer":0,"byteOffset":45216,"byteLength":23616}],"accessors":[{"bufferView":0,"componentType":5126,"count":1413,"type":"VEC3","min":[-0.025798451,0.44,7.450581e-09],"max":[0.025798451,0.66169304,0.05175468]},{"bufferView":1,"componentType":5126,"count":1413,"type":"VEC3"},{"bufferView":2,"componentType":5126,"count":1413,"type":"VEC2"},{"bufferView":3,"componentType":5125,"count":5904,"type":"SCALAR"}]}