{"asset":{"version":"2.0","generator":"Dungeon AssetBaker"},"scene":0,"scenes":[{"nodes":[0]}],"nodes":[{"mesh":0}],"materials":[{"pbrMetallicRoughness":{"baseColorFactor":[1,1,1,1],"metallicFactor":0.0,"roughnessFactor":1.0}}],"meshes":[{"primitives":[{"attributes":{"POSITION":0,"NORMAL":1,"TEXCOORD_0":2},"indices":3,"material":0}]}],"buffers":[{"byteLength":74912,"uri":"data:application/octet-stream;base64,"}],"bufferViews":[{"buffer":0,"byteOffset":0,"byteLength":16428},{"buffer":0,"byteOffset":16428,"byteLength":16428},{"buffer":0,"byteOffset":32856,"byteLength":10952},{"buffer":0,"byteOffset":43808,"byteLength":31104}],"accessors":[{"bufferView":0,"componentType":5126,"count":1369,"type":"VEC3","min":[-1,0,-1],"max":[1,0.09165407,1]},{"bufferView":1,"componentType":5126,"count":1369,"type":"VEC3"},{"bufferView":2,"componentType":5126,"count":1369,"type":"VEC2"},{"bufferView":3,"componentType":5125,"count":7776,"type":"SCALAR"}]}