{"asset":{"version":"2.0","generator":"Dungeon AssetBaker"},"scene":0,"scenes":[{"nodes":[0]}],"nodes":[{"mesh":0}],"materials":[{"pbrMetallicRoughness":{"baseColorFactor":[1,1,1,1],"metallicFactor":0.0,"roughnessFactor":1.0}}],"meshes":[{"primitives":[{"attributes":{"POSITION":0,"NORMAL":1,"TEXCOORD_0":2},"indices":3,"material":0}]}],"buffers":[{"byteLength":160728,"uri":"data:application/octet-stream;base64,"}],"bufferViews":[{"buffer":0,"byteOffset":0,"byteLength":34992},{"buffer":0,"byteOffset":34992,"byteLength":34992},{"buffer":0,"byteOffset":69984,"byteLength":23328},{"buffer":0,"byteOffset":93312,"byteLength":67416}],"accessors":[{"bufferView":0,"componentType":5126,"count":2916,"type":"VEC3","min":[-0.5,-0.005251789,-0.5],"max":[0.5,0.008932815,0.5]},{"bufferView":1,"componentType":5126,"count":2916,"type":"VEC3"},{"bufferView":2,"componentType":5126,"count":2916,"type":"VEC2"},{"bufferView":3,"componentType":5125,"count":16854,"type":"SCALAR"}]}