{"asset":{"version":"2.0","generator":"Dungeon AssetBaker"},"scene":0,"scenes":[{"nodes":[0]}],"nodes":[{"mesh":0}],"materials":[{"pbrMetallicRoughness":{"baseColorFactor":[1,1,1,1],"metallicFactor":0.0,"roughnessFactor":1.0}}],"meshes":[{"primitives":[{"attributes":{"POSITION":0,"NORMAL":1,"TEXCOORD_0":2},"indices":3,"material":0}]}],"buffers":[{"byteLength":48984,"uri":"data:application/octet-stream;base64,"}],"bufferViews":[{"buffer":0,"byteOffset":0,"byteLength":10800},{"buffer":0,"byteOffset":10800,"byteLength":10800},{"buffer":0,"byteOffset":21600,"byteLength":7200},{"buffer":0,"byteOffset":28800,"byteLength":20184}],"accessors":[{"bufferView":0,"componentType":5126,"count":900,"type":"VEC3","min":[-0.5,0,-0.5],"max":[0.5,0.024921436,0.5]},{"bufferView":1,"componentType":5126,"count":900,"type":"VEC3"},{"bufferView":2,"componentType":5126,"count":900,"type":"VEC2"},{"bufferView":3,"componentType":5125,"count":5046,"type":"SCALAR"}]}