{"asset":{"version":"2.0","generator":"Dungeon AssetBaker"},"scene":0,"scenes":[{"nodes":[0]}],"nodes":[{"mesh":0}],"materials":[{"pbrMetallicRoughness":{"baseColorFactor":[1,1,1,1],"metallicFactor":0.0,"roughnessFactor":1.0}}],"meshes":[{"primitives":[{"attributes":{"POSITION":0,"NORMAL":1,"TEXCOORD_0":2},"indices":3,"material":0}]}],"buffers":[{"byteLength":170944,"uri":"data:application/octet-stream;base64,"}],"bufferViews":[{"buffer":0,"byteOffset":0,"byteLength":37320},{"buffer":0,"byteOffset":37320,"byteLength":37320},{"buffer":0,"byteOffset":74640,"byteLength":24880},{"buffer":0,"byteOffset":99520,"byteLength":71424}],"accessors":[{"bufferView":0,"componentType":5126,"count":3110,"type":"VEC3","min":[-0.5,0,-0.01638874],"max":[0.5,1,0.034]},{"bufferView":1,"componentType":5126,"count":3110,"type":"VEC3"},{"bufferView":2,"componentType":5126,"count":3110,"type":"VEC2"},{"bufferView":3,"componentType":5125,"count":17856,"type":"SCALAR"}]}