{"asset":{"version":"2.0","generator":"Dungeon AssetBaker"},"scene":0,"scenes":[{"nodes":[0]}],"nodes":[{"mesh":0}],"materials":[{"pbrMetallicRoughness":{"baseColorFactor":[1,1,1,1],"metallicFactor":0.0,"roughnessFactor":1.0}}],"meshes":[{"primitives":[{"attributes":{"POSITION":0,"NORMAL":1,"TEXCOORD_0":2},"indices":3,"material":0}]}],"buffers":[{"byteLength":33824,"uri":"data:application/octet-stream;base64,"}],"bufferViews":[{"buffer":0,"byteOffset":0,"byteLength":7500},{"buffer":0,"byteOffset":7500,"byteLength":7500},{"buffer":0,"byteOffset":15000,"byteLength":5000},{"buffer":0,"byteOffset":20000,"byteLength":13824}],"accessors":[{"bufferView":0,"componentType":5126,"count":625,"type":"VEC3","min":[-1,0,-1],"max":[1,0.07341496,1]},{"bufferView":1,"componentType":5126,"count":625,"type":"VEC3"},{"bufferView":2,"componentType":5126,"count":625,"type":"VEC2"},{"bufferView":3,"componentType":5125,"count":3456,"type":"SCALAR"}]}