{"asset":{"version":"2.0","generator":"Dungeon AssetBaker"},"scene":0,"scenes":[{"nodes":[0]}],"nodes":[{"mesh":0}],"materials":[{"pbrMetallicRoughness":{"baseColorFactor":[1,1,1,1],"metallicFactor":0.0,"roughnessFactor":1.0}}],"meshes":[{"primitives":[{"attributes":{"POSITION":0,"NORMAL":1,"TEXCOORD_0":2},"indices":3,"material":0}]}],"buffers":[{"byteLength":11904,"uri":"data:application/octet-stream;base64,"}],"bufferViews":[{"buffer":0,"byteOffset":0,"byteLength":2700},{"buffer":0,"byteOffset":2700,"byteLength":2700},{"buffer":0,"byteOffset":5400,"byteLength":1800},{"buffer":0,"byteOffset":7200,"byteLength":4704}],"accessors":[{"bufferView":0,"componentType":5126,"count":225,"type":"VEC3","min":[-0.5,-0.00022061635,-0.5],"max":[0.5,0.0055894544,0.5]},{"bufferView":1,"componentType":5126,"count":225,"type":"VEC3"},{"bufferView":2,"componentType":5126,"count":225,"type":"VEC2"},{"bufferView":3,"componentType":5125,"count":1176,"type":"SCALAR"}]}