{"asset":{"version":"2.0","generator":"Dungeon AssetBaker"},"scene":0,"scenes":[{"nodes":[0]}],"nodes":[{"mesh":0}],"materials":[{"pbrMetallicRoughness":{"baseColorFactor":[1,1,1,1],"metallicFactor":0.0,"roughnessFactor":1.0}}],"meshes":[{"primitives":[{"attributes":{"POSITION":0,"NORMAL":1,"TEXCOORD_0":2},"indices":3,"material":0}]}],"buffers":[{"byteLength":6272,"uri":"data:application/octet-stream;base64,"}],"bufferViews":[{"buffer":0,"byteOffset":0,"byteLength":1452},{"buffer":0,"byteOffset":1452,"byteLength":1452},{"buffer":0,"byteOffset":2904,"byteLength":968},{"buffer":0,"byteOffset":3872,"byteLength":2400}],"accessors":[{"bufferView":0,"componentType":5126,"count":121,"type":"VEC3","min":[-1,0,-1],"max":[1,0.06910647,1]},{"bufferView":1,"componentType":5126,"count":121,"type":"VEC3"},{"bufferView":2,"componentType":5126,"count":121,"type":"VEC2"},{"bufferView":3,"componentType":5125,"count":600,"type":"SCALAR"}]}