{"asset":{"version":"2.0","generator":"Dungeon AssetBaker"},"scene":0,"scenes":[{"nodes":[0]}],"nodes":[{"mesh":0}],"materials":[{"pbrMetallicRoughness":{"baseColorFactor":[1,1,1,1],"metallicFactor":0.0,"roughnessFactor":1.0}}],"meshes":[{"primitives":[{"attributes":{"POSITION":0,"NORMAL":1,"TEXCOORD_0":2},"indices":3,"material":0}]}],"buffers":[{"byteLength":70816,"uri":"data:application/octet-stream;base64,"}],"bufferViews":[{"buffer":0,"byteOffset":0,"byteLength":15540},{"buffer":0,"byteOffset":15540,"byteLength":15540},{"buffer":0,"byteOffset":31080,"byteLength":10360},{"buffer":0,"byteOffset":41440,"byteLength":29376}],"accessors":[{"bufferView":0,"componentType":5126,"count":1295,"type":"VEC3","min":[-0.5,0,-0.010769525],"max":[0.5,1,-0]},{"bufferView":1,"componentType":5126,"count":1295,"type":"VEC3"},{"bufferView":2,"componentType":5126,"count":1295,"type":"VEC2"},{"bufferView":3,"componentType":5125,"count":7344,"type":"SCALAR"}]}