{"asset":{"version":"2.0","generator":"Dungeon AssetBaker"},"scene":0,"scenes":[{"nodes":[0]}],"nodes":[{"mesh":0}],"materials":[{"pbrMetallicRoughness":{"baseColorFactor":[1,1,1,1],"metallicFactor":0.0,"roughnessFactor":1.0}}],"meshes":[{"primitives":[{"attributes":{"POSITION":0,"NORMAL":1,"TEXCOORD_0":2},"indices":3,"material":0}]}],"buffers":[{"byteLength":66944,"uri":"data:application/octet-stream;base64,"}],"bufferViews":[{"buffer":0,"byteOffset":0,"byteLength":14700},{"buffer":0,"byteOffset":14700,"byteLength":14700},{"buffer":0,"byteOffset":29400,"byteLength":9800},{"buffer":0,"byteOffset":39200,"byteLength":27744}],"accessors":[{"bufferView":0,"componentType":5126,"count":1225,"type":"VEC3","min":[-0.5,-0.006413969,-0.5],"max":[0.5,0.0057832235,0.5]},{"bufferView":1,"componentType":5126,"count":1225,"type":"VEC3"},{"bufferView":2,"componentType":5126,"count":1225,"type":"VEC2"},{"bufferView":3,"componentType":5125,"count":6936,"type":"SCALAR"}]}