{"asset":{"version":"2.0","generator":"Dungeon AssetBaker"},"scene":0,"scenes":[{"nodes":[0]}],"nodes":[{"mesh":0}],"materials":[{"pbrMetallicRoughness":{"baseColorFactor":[1,1,1,1],"metallicFactor":0.0,"roughnessFactor":1.0}}],"meshes":[{"primitives":[{"attributes":{"POSITION":0,"NORMAL":1,"TEXCOORD_0":2},"indices":3,"material":0}]}],"buffers":[{"byteLength":59744,"uri":"data:application/octet-stream;base64,"}],"bufferViews":[{"buffer":0,"byteOffset":0,"byteLength":13260},{"buffer":0,"byteOffset":13260,"byteLength":13260},{"buffer":0,"byteOffset":26520,"byteLength":8840},{"buffer":0,"byteOffset":35360,"byteLength":24384}],"accessors":[{"bufferView":0,"componentType":5126,"count":1105,"type":"VEC3","min":[-1,0,-0.027246982],"max":[1,2.5,0.085]},{"bufferView":1,"componentType":5126,"count":1105,"type":"VEC3"},{"bufferView":2,"componentType":5126,"count":1105,"type":"VEC2"},{"bufferView":3,"componentType":5125,"count":6096,"type":"SCALAR"}]}