{"asset":{"version":"2.0","generator":"Dungeon AssetBaker"},"scene":0,"scenes":[{"nodes":[0]}],"nodes":[{"mesh":0}],"materials":[{"pbrMetallicRoughness":{"baseColorFactor":[1,1,1,1],"metallicFactor":0.0,"roughnessFactor":1.0}}],"meshes":[{"primitives":[{"attributes":{"POSITION":0,"NORMAL":1,"TEXCOORD_0":2},"indices":3,"material":0}]}],"buffers":[{"byteLength":106328,"uri":"data:application/octet-stream;base64,"}],"bufferViews":[{"buffer":0,"byteOffset":0,"byteLength":23232},{"buffer":0,"byteOffset":23232,"byteLength":23232},{"buffer":0,"byteOffset":46464,"byteLength":15488},{"buffer":0,"byteOffset":61952,"byteLength":44376}],"accessors":[{"bufferView":0,"componentType":5126,"count":1936,"type":"VEC3","min":[-0.5,0,-0.5],"max":[0.5,0.032102812,0.5]},{"bufferView":1,"componentType":5126,"count":1936,"type":"VEC3"},{"bufferView":2,"componentType":5126,"count":1936,"type":"VEC2"},{"bufferView":3,"componentType":5125,"count":11094,"type":"SCALAR"}]}