{"asset":{"version":"2.0","generator":"Dungeon AssetBaker"},"scene":0,"scenes":[{"nodes":[0]}],"nodes":[{"mesh":0}],"materials":[{"pbrMetallicRoughness":{"baseColorFactor":[1,1,1,1],"metallicFactor":0.0,"roughnessFactor":1.0}}],"meshes":[{"primitives":[{"attributes":{"POSITION":0,"NORMAL":1,"TEXCOORD_0":2},"indices":3,"material":0}]}],"buffers":[{"byteLength":169728,"uri":"data:application/octet-stream;base64,"}],"bufferViews":[{"buffer":0,"byteOffset":0,"byteLength":36936},{"buffer":0,"byteOffset":36936,"byteLength":36936},{"buffer":0,"byteOffset":73872,"byteLength":24624},{"buffer":0,"byteOffset":98496,"byteLength":71232}],"accessors":[{"bufferView":0,"componentType":5126,"count":3078,"type":"VEC3","min":[-0.5,0,-0.01166344],"max":[0.5,1,-0]},{"bufferView":1,"componentType":5126,"count":3078,"type":"VEC3"},{"bufferView":2,"componentType":5126,"count":3078,"type":"VEC2"},{"bufferView":3,"componentType":5125,"count":17808,"type":"SCALAR"}]}